<svg xmlns="http://www.w3.org/2000/svg" viewBox="0 0 1920 1080" width="1920" height="1080">
  <defs>
    <!-- Sky gradient - navy to teal-green -->
    <linearGradient id="skyGrad" x1="0%" y1="0%" x2="100%" y2="100%">
      <stop offset="0%" stop-color="#0F172A"/>
      <stop offset="35%" stop-color="#152444"/>
      <stop offset="60%" stop-color="#1E3A5F"/>
      <stop offset="100%" stop-color="#16A34A"/>
    </linearGradient>

    <!-- Sun glow gradient -->
    <radialGradient id="sunGlow" cx="50%" cy="50%" r="50%">
      <stop offset="0%" stop-color="#F4C430" stop-opacity="0.6"/>
      <stop offset="40%" stop-color="#F4C430" stop-opacity="0.2"/>
      <stop offset="100%" stop-color="#F4C430" stop-opacity="0"/>
    </radialGradient>

    <!-- Sun body gradient -->
    <radialGradient id="sunBody" cx="40%" cy="40%" r="60%">
      <stop offset="0%" stop-color="#FFE066"/>
      <stop offset="50%" stop-color="#F4C430"/>
      <stop offset="100%" stop-color="#D4A017"/>
    </radialGradient>

    <!-- Text-safe dark overlay on left -->
    <linearGradient id="darkOverlay" x1="0%" y1="0%" x2="100%" y2="0%">
      <stop offset="0%" stop-color="#0F172A" stop-opacity="0.7"/>
      <stop offset="40%" stop-color="#0F172A" stop-opacity="0.45"/>
      <stop offset="70%" stop-color="#0F172A" stop-opacity="0.15"/>
      <stop offset="100%" stop-color="#0F172A" stop-opacity="0"/>
    </linearGradient>

    <!-- Bottom fade to blend with page -->
    <linearGradient id="bottomFade" x1="0%" y1="0%" x2="0%" y2="100%">
      <stop offset="0%" stop-color="#0F172A" stop-opacity="0"/>
      <stop offset="70%" stop-color="#0F172A" stop-opacity="0.3"/>
      <stop offset="100%" stop-color="#0F172A" stop-opacity="0.6"/>
    </linearGradient>

    <!-- Solar panel gradient -->
    <linearGradient id="panelGrad" x1="0%" y1="0%" x2="100%" y2="100%">
      <stop offset="0%" stop-color="#1a2744"/>
      <stop offset="50%" stop-color="#243555"/>
      <stop offset="100%" stop-color="#1a2744"/>
    </linearGradient>

    <!-- Panel reflection -->
    <linearGradient id="panelReflect" x1="0%" y1="0%" x2="100%" y2="100%">
      <stop offset="0%" stop-color="#4a8fcc" stop-opacity="0.3"/>
      <stop offset="50%" stop-color="#6bb5e8" stop-opacity="0.15"/>
      <stop offset="100%" stop-color="#4a8fcc" stop-opacity="0.05"/>
    </linearGradient>

    <!-- Leaf gradient -->
    <linearGradient id="leafGrad1" x1="0%" y1="0%" x2="100%" y2="100%">
      <stop offset="0%" stop-color="#22C55E"/>
      <stop offset="100%" stop-color="#16A34A"/>
    </linearGradient>
    <linearGradient id="leafGrad2" x1="0%" y1="0%" x2="100%" y2="100%">
      <stop offset="0%" stop-color="#16A34A"/>
      <stop offset="100%" stop-color="#0D7A3A"/>
    </linearGradient>

    <!-- Star/sparkle filter -->
    <filter id="glow" x="-50%" y="-50%" width="200%" height="200%">
      <feGaussianBlur in="SourceGraphic" stdDeviation="3" result="blur"/>
      <feMerge>
        <feMergeNode in="blur"/>
        <feMergeNode in="SourceGraphic"/>
      </feMerge>
    </filter>

    <!-- Soft glow for sun -->
    <filter id="sunSoftGlow" x="-100%" y="-100%" width="300%" height="300%">
      <feGaussianBlur in="SourceGraphic" stdDeviation="20"/>
    </filter>

    <!-- Ambient light particles -->
    <filter id="particleGlow" x="-50%" y="-50%" width="200%" height="200%">
      <feGaussianBlur in="SourceGraphic" stdDeviation="2"/>
    </filter>

    <!-- Rooftop gradient -->
    <linearGradient id="roofGrad" x1="0%" y1="0%" x2="0%" y2="100%">
      <stop offset="0%" stop-color="#2d3748"/>
      <stop offset="100%" stop-color="#1a202c"/>
    </linearGradient>

    <!-- Building wall gradient -->
    <linearGradient id="wallGrad" x1="0%" y1="0%" x2="0%" y2="100%">
      <stop offset="0%" stop-color="#1f2937"/>
      <stop offset="100%" stop-color="#111827"/>
    </linearGradient>

    <!-- Cloud gradient -->
    <linearGradient id="cloudGrad" x1="0%" y1="0%" x2="0%" y2="100%">
      <stop offset="0%" stop-color="#ffffff" stop-opacity="0.08"/>
      <stop offset="100%" stop-color="#ffffff" stop-opacity="0.02"/>
    </linearGradient>

    <!-- Horizon glow -->
    <radialGradient id="horizonGlow" cx="70%" cy="75%" r="40%">
      <stop offset="0%" stop-color="#F4C430" stop-opacity="0.15"/>
      <stop offset="50%" stop-color="#22C55E" stop-opacity="0.08"/>
      <stop offset="100%" stop-color="#0F172A" stop-opacity="0"/>
    </radialGradient>
  </defs>

  <!-- ═══ BACKGROUND SKY ═══ -->
  <rect width="1920" height="1080" fill="url(#skyGrad)"/>

  <!-- Horizon ambient glow -->
  <rect width="1920" height="1080" fill="url(#horizonGlow)"/>

  <!-- ═══ STARS / DOTS (upper left, subtle) ═══ -->
  <g opacity="0.4">
    <circle cx="120" cy="80" r="1.5" fill="#ffffff"/>
    <circle cx="250" cy="150" r="1" fill="#ffffff"/>
    <circle cx="80" cy="200" r="1.2" fill="#ffffff"/>
    <circle cx="350" cy="60" r="0.8" fill="#ffffff"/>
    <circle cx="500" cy="120" r="1" fill="#ffffff"/>
    <circle cx="180" cy="300" r="1.3" fill="#ffffff"/>
    <circle cx="420" cy="220" r="0.9" fill="#ffffff"/>
    <circle cx="600" cy="80" r="1.1" fill="#ffffff"/>
    <circle cx="50" cy="350" r="0.7" fill="#ffffff"/>
    <circle cx="300" cy="380" r="1" fill="#ffffff"/>
    <circle cx="680" cy="170" r="0.8" fill="#ffffff"/>
    <circle cx="150" cy="450" r="1" fill="#ffffff"/>
    <circle cx="750" cy="100" r="1.2" fill="#ffffff"/>
    <circle cx="550" cy="280" r="0.6" fill="#ffffff"/>
    <circle cx="850" cy="60" r="0.9" fill="#ffffff"/>
  </g>

  <!-- ═══ WISPY CLOUDS ═══ -->
  <g opacity="0.6">
    <ellipse cx="300" cy="250" rx="180" ry="25" fill="url(#cloudGrad)"/>
    <ellipse cx="350" cy="245" rx="120" ry="20" fill="url(#cloudGrad)"/>
    <ellipse cx="900" cy="180" rx="220" ry="30" fill="url(#cloudGrad)"/>
    <ellipse cx="950" cy="175" rx="150" ry="22" fill="url(#cloudGrad)"/>
    <ellipse cx="1500" cy="300" rx="160" ry="20" fill="url(#cloudGrad)"/>
  </g>

  <!-- ═══ SUN WITH RAYS ═══ -->
  <g>
    <!-- Outer massive glow -->
    <circle cx="1380" cy="340" r="300" fill="url(#sunGlow)" filter="url(#sunSoftGlow)" opacity="0.5"/>

    <!-- Medium glow ring -->
    <circle cx="1380" cy="340" r="200" fill="url(#sunGlow)" opacity="0.4"/>

    <!-- Sun rays (long lines radiating out) -->
    <g stroke="#F4C430" stroke-linecap="round" opacity="0.3">
      <line x1="1380" y1="340" x2="1380" y2="80" stroke-width="3"/>
      <line x1="1380" y1="340" x2="1564" y2="156" stroke-width="2.5"/>
      <line x1="1380" y1="340" x2="1640" y2="340" stroke-width="3"/>
      <line x1="1380" y1="340" x2="1564" y2="524" stroke-width="2.5"/>
      <line x1="1380" y1="340" x2="1380" y2="600" stroke-width="3"/>
      <line x1="1380" y1="340" x2="1196" y2="524" stroke-width="2.5"/>
      <line x1="1380" y1="340" x2="1120" y2="340" stroke-width="3"/>
      <line x1="1380" y1="340" x2="1196" y2="156" stroke-width="2.5"/>
    </g>

    <!-- Secondary diagonal rays -->
    <g stroke="#F4C430" stroke-linecap="round" opacity="0.15">
      <line x1="1380" y1="340" x2="1480" y2="110" stroke-width="2"/>
      <line x1="1380" y1="340" x2="1620" y2="220" stroke-width="2"/>
      <line x1="1380" y1="340" x2="1650" y2="440" stroke-width="2"/>
      <line x1="1380" y1="340" x2="1510" y2="580" stroke-width="2"/>
      <line x1="1380" y1="340" x2="1280" y2="570" stroke-width="2"/>
      <line x1="1380" y1="340" x2="1140" y2="450" stroke-width="2"/>
      <line x1="1380" y1="340" x2="1140" y2="230" stroke-width="2"/>
      <line x1="1380" y1="340" x2="1280" y2="110" stroke-width="2"/>
    </g>

    <!-- Sun body -->
    <circle cx="1380" cy="340" r="75" fill="url(#sunBody)"/>
    <circle cx="1380" cy="340" r="75" fill="none" stroke="#FFE066" stroke-width="2" opacity="0.5"/>

    <!-- Inner sun highlight -->
    <circle cx="1360" cy="320" r="35" fill="#FFE88A" opacity="0.4"/>
  </g>

  <!-- ═══ DISTANT HILLS / LANDSCAPE ═══ -->
  <path d="M0 750 Q200 680 400 720 Q600 680 800 700 Q1000 660 1200 690 Q1400 650 1600 680 Q1800 660 1920 700 L1920 1080 L0 1080 Z" fill="#0D1B2A" opacity="0.5"/>

  <!-- ═══ BUILDINGS SILHOUETTE (right side) ═══ -->
  <g>
    <!-- Far building 1 -->
    <rect x="1100" y="580" width="80" height="300" fill="url(#wallGrad)" opacity="0.4"/>
    <!-- Far building 2 -->
    <rect x="1200" y="550" width="100" height="330" fill="url(#wallGrad)" opacity="0.35"/>

    <!-- Main house structure -->
    <g>
      <!-- House wall -->
      <rect x="1320" y="620" width="320" height="260" fill="url(#wallGrad)" rx="2"/>
      <!-- Roof -->
      <polygon points="1300,620 1480,500 1660,620" fill="url(#roofGrad)"/>
      <!-- Roof edge highlight -->
      <line x1="1300" y1="620" x2="1480" y2="500" stroke="#3d4f66" stroke-width="2"/>
      <line x1="1480" y1="500" x2="1660" y2="620" stroke="#3d4f66" stroke-width="2"/>

      <!-- Windows (lit warm glow) -->
      <rect x="1370" y="670" width="45" height="50" rx="3" fill="#F4C430" opacity="0.2"/>
      <rect x="1370" y="670" width="45" height="50" rx="3" fill="none" stroke="#F4C430" stroke-width="1" opacity="0.3"/>
      <rect x="1445" y="670" width="45" height="50" rx="3" fill="#F4C430" opacity="0.15"/>
      <rect x="1445" y="670" width="45" height="50" rx="3" fill="none" stroke="#F4C430" stroke-width="1" opacity="0.25"/>
      <rect x="1520" y="670" width="45" height="50" rx="3" fill="#F4C430" opacity="0.2"/>
      <rect x="1520" y="670" width="45" height="50" rx="3" fill="none" stroke="#F4C430" stroke-width="1" opacity="0.3"/>

      <!-- Door -->
      <rect x="1455" y="790" width="50" height="90" rx="3" fill="#111827"/>
      <rect x="1455" y="790" width="50" height="90" rx="3" fill="none" stroke="#2d3748" stroke-width="1"/>

      <!-- ═══ SOLAR PANELS ON ROOF ═══ -->
      <g>
        <!-- Panel Row 1 (left slope) -->
        <g transform="translate(1320, 555) rotate(-21.8)">
          <!-- Panel 1 -->
          <rect x="0" y="0" width="65" height="45" rx="2" fill="url(#panelGrad)" stroke="#4a5568" stroke-width="1"/>
          <rect x="0" y="0" width="65" height="45" rx="2" fill="url(#panelReflect)"/>
          <line x1="22" y1="0" x2="22" y2="45" stroke="#4a5568" stroke-width="0.5" opacity="0.5"/>
          <line x1="44" y1="0" x2="44" y2="45" stroke="#4a5568" stroke-width="0.5" opacity="0.5"/>
          <line x1="0" y1="15" x2="65" y2="15" stroke="#4a5568" stroke-width="0.5" opacity="0.5"/>
          <line x1="0" y1="30" x2="65" y2="30" stroke="#4a5568" stroke-width="0.5" opacity="0.5"/>

          <!-- Panel 2 -->
          <rect x="70" y="0" width="65" height="45" rx="2" fill="url(#panelGrad)" stroke="#4a5568" stroke-width="1"/>
          <rect x="70" y="0" width="65" height="45" rx="2" fill="url(#panelReflect)"/>
          <line x1="92" y1="0" x2="92" y2="45" stroke="#4a5568" stroke-width="0.5" opacity="0.5"/>
          <line x1="114" y1="0" x2="114" y2="45" stroke="#4a5568" stroke-width="0.5" opacity="0.5"/>
          <line x1="70" y1="15" x2="135" y2="15" stroke="#4a5568" stroke-width="0.5" opacity="0.5"/>
          <line x1="70" y1="30" x2="135" y2="30" stroke="#4a5568" stroke-width="0.5" opacity="0.5"/>
        </g>

        <!-- Panel Row 2 (right slope) -->
        <g transform="translate(1490, 530) rotate(21.8)">
          <!-- Panel 1 -->
          <rect x="0" y="0" width="65" height="45" rx="2" fill="url(#panelGrad)" stroke="#4a5568" stroke-width="1"/>
          <rect x="0" y="0" width="65" height="45" rx="2" fill="url(#panelReflect)"/>
          <line x1="22" y1="0" x2="22" y2="45" stroke="#4a5568" stroke-width="0.5" opacity="0.5"/>
          <line x1="44" y1="0" x2="44" y2="45" stroke="#4a5568" stroke-width="0.5" opacity="0.5"/>
          <line x1="0" y1="15" x2="65" y2="15" stroke="#4a5568" stroke-width="0.5" opacity="0.5"/>
          <line x1="0" y1="30" x2="65" y2="30" stroke="#4a5568" stroke-width="0.5" opacity="0.5"/>

          <!-- Panel 2 -->
          <rect x="70" y="0" width="65" height="45" rx="2" fill="url(#panelGrad)" stroke="#4a5568" stroke-width="1"/>
          <rect x="70" y="0" width="65" height="45" rx="2" fill="url(#panelReflect)"/>
          <line x1="92" y1="0" x2="92" y2="45" stroke="#4a5568" stroke-width="0.5" opacity="0.5"/>
          <line x1="114" y1="0" x2="114" y2="45" stroke="#4a5568" stroke-width="0.5" opacity="0.5"/>
          <line x1="70" y1="15" x2="135" y2="15" stroke="#4a5568" stroke-width="0.5" opacity="0.5"/>
          <line x1="70" y1="30" x2="135" y2="30" stroke="#4a5568" stroke-width="0.5" opacity="0.5"/>
        </g>

        <!-- Sun reflection glint on panels -->
        <circle cx="1420" cy="545" r="8" fill="#FFE066" opacity="0.4" filter="url(#glow)"/>
        <circle cx="1540" cy="550" r="6" fill="#FFE066" opacity="0.3" filter="url(#glow)"/>
      </g>
    </g>

    <!-- Second smaller house -->
    <g>
      <rect x="1660" y="660" width="200" height="220" fill="url(#wallGrad)" rx="2"/>
      <polygon points="1645,660 1760,570 1875,660" fill="url(#roofGrad)"/>
      <line x1="1645" y1="660" x2="1760" y2="570" stroke="#3d4f66" stroke-width="1.5"/>
      <line x1="1760" y1="570" x2="1875" y2="570" stroke="#3d4f66" stroke-width="0"/>
      <line x1="1760" y1="570" x2="1875" y2="660" stroke="#3d4f66" stroke-width="1.5"/>

      <!-- Window -->
      <rect x="1700" y="700" width="40" height="45" rx="2" fill="#F4C430" opacity="0.15"/>
      <rect x="1700" y="700" width="40" height="45" rx="2" fill="none" stroke="#F4C430" stroke-width="1" opacity="0.2"/>
      <rect x="1780" y="700" width="40" height="45" rx="2" fill="#F4C430" opacity="0.12"/>

      <!-- Solar panels on second house -->
      <g transform="translate(1670, 610) rotate(-22)">
        <rect x="0" y="0" width="55" height="38" rx="2" fill="url(#panelGrad)" stroke="#4a5568" stroke-width="0.8"/>
        <rect x="0" y="0" width="55" height="38" rx="2" fill="url(#panelReflect)"/>
        <line x1="18" y1="0" x2="18" y2="38" stroke="#4a5568" stroke-width="0.4" opacity="0.5"/>
        <line x1="37" y1="0" x2="37" y2="38" stroke="#4a5568" stroke-width="0.4" opacity="0.5"/>
        <line x1="0" y1="13" x2="55" y2="13" stroke="#4a5568" stroke-width="0.4" opacity="0.5"/>
        <line x1="0" y1="26" x2="55" y2="26" stroke="#4a5568" stroke-width="0.4" opacity="0.5"/>
      </g>
    </g>
  </g>

  <!-- ═══ GROUND / TERRAIN ═══ -->
  <path d="M0 880 Q300 850 600 860 Q900 840 1100 855 Q1300 870 1500 860 Q1700 850 1920 865 L1920 1080 L0 1080 Z" fill="#0D1B2A" opacity="0.7"/>

  <!-- ═══ GREEN FOLIAGE / TREES ═══ -->
  <!-- Tree cluster right -->
  <g>
    <!-- Tree trunk -->
    <rect x="1850" y="720" width="12" height="160" rx="3" fill="#1a3320"/>
    <!-- Tree foliage -->
    <ellipse cx="1856" cy="700" rx="55" ry="70" fill="url(#leafGrad2)" opacity="0.7"/>
    <ellipse cx="1840" cy="680" rx="40" ry="55" fill="url(#leafGrad1)" opacity="0.6"/>
    <ellipse cx="1870" cy="690" rx="35" ry="50" fill="#16A34A" opacity="0.5"/>
  </g>

  <!-- Bush cluster right -->
  <g opacity="0.6">
    <ellipse cx="1780" cy="860" rx="50" ry="30" fill="url(#leafGrad2)"/>
    <ellipse cx="1810" cy="855" rx="35" ry="25" fill="url(#leafGrad1)"/>
    <ellipse cx="1750" cy="865" rx="30" ry="20" fill="#22C55E" opacity="0.7"/>
  </g>

  <!-- Tree left-mid area -->
  <g>
    <rect x="980" y="740" width="10" height="140" rx="3" fill="#1a3320" opacity="0.5"/>
    <ellipse cx="985" cy="720" rx="45" ry="60" fill="url(#leafGrad2)" opacity="0.4"/>
    <ellipse cx="975" cy="710" rx="35" ry="50" fill="url(#leafGrad1)" opacity="0.35"/>
  </g>

  <!-- Small bushes left -->
  <g opacity="0.4">
    <ellipse cx="200" cy="870" rx="60" ry="25" fill="url(#leafGrad2)"/>
    <ellipse cx="240" cy="865" rx="40" ry="20" fill="url(#leafGrad1)"/>
    <ellipse cx="350" cy="875" rx="35" ry="18" fill="#16A34A"/>
  </g>

  <!-- ═══ FLOATING LIGHT PARTICLES ═══ -->
  <g filter="url(#particleGlow)" opacity="0.5">
    <circle cx="1300" cy="420" r="3" fill="#F4C430"/>
    <circle cx="1450" cy="480" r="2.5" fill="#FFE066"/>
    <circle cx="1200" cy="350" r="2" fill="#F4C430"/>
    <circle cx="1500" cy="300" r="3.5" fill="#FFE066"/>
    <circle cx="1100" cy="500" r="2" fill="#F4C430"/>
    <circle cx="1550" cy="420" r="2.5" fill="#FFE066"/>
    <circle cx="1250" cy="280" r="1.8" fill="#F4C430"/>
    <circle cx="1600" cy="350" r="2" fill="#FFE066"/>
    <circle cx="1350" cy="500" r="2.2" fill="#F4C430"/>
    <circle cx="1150" cy="420" r="1.5" fill="#FFE066"/>
    <circle cx="900" cy="450" r="2" fill="#F4C430"/>
    <circle cx="800" cy="380" r="1.5" fill="#22C55E"/>
    <circle cx="700" cy="500" r="2" fill="#22C55E"/>
    <circle cx="1650" cy="280" r="2" fill="#FFE066"/>
  </g>

  <!-- ═══ POWER LINES (subtle, adds realism) ═══ -->
  <g stroke="#2d3748" stroke-width="1" opacity="0.2">
    <line x1="1050" y1="600" x2="1100" y2="580"/>
    <!-- Power pole -->
    <rect x="1095" y="540" width="3" height="100" fill="#2d3748" opacity="0.3"/>
    <line x1="1085" y1="550" x2="1110" y2="550" stroke="#2d3748" stroke-width="1.5" opacity="0.3"/>
  </g>

  <!-- ═══ LARGE SOLAR FARM PANELS (foreground left-center) ═══ -->
  <g opacity="0.25">
    <!-- Ground-mounted panel array (subtle, in distance) -->
    <g transform="translate(600, 780) skewX(-5)">
      <rect x="0" y="0" width="80" height="50" rx="2" fill="url(#panelGrad)" stroke="#4a5568" stroke-width="0.5"/>
      <rect x="0" y="0" width="80" height="50" rx="2" fill="url(#panelReflect)"/>
      <line x1="27" y1="0" x2="27" y2="50" stroke="#4a5568" stroke-width="0.3"/>
      <line x1="54" y1="0" x2="54" y2="50" stroke="#4a5568" stroke-width="0.3"/>
      <line x1="0" y1="17" x2="80" y2="17" stroke="#4a5568" stroke-width="0.3"/>
      <line x1="0" y1="34" x2="80" y2="34" stroke="#4a5568" stroke-width="0.3"/>
    </g>
    <g transform="translate(700, 775) skewX(-5)">
      <rect x="0" y="0" width="80" height="50" rx="2" fill="url(#panelGrad)" stroke="#4a5568" stroke-width="0.5"/>
      <rect x="0" y="0" width="80" height="50" rx="2" fill="url(#panelReflect)"/>
      <line x1="27" y1="0" x2="27" y2="50" stroke="#4a5568" stroke-width="0.3"/>
      <line x1="54" y1="0" x2="54" y2="50" stroke="#4a5568" stroke-width="0.3"/>
      <line x1="0" y1="17" x2="80" y2="17" stroke="#4a5568" stroke-width="0.3"/>
      <line x1="0" y1="34" x2="80" y2="34" stroke="#4a5568" stroke-width="0.3"/>
    </g>
    <g transform="translate(800, 770) skewX(-5)">
      <rect x="0" y="0" width="80" height="50" rx="2" fill="url(#panelGrad)" stroke="#4a5568" stroke-width="0.5"/>
      <rect x="0" y="0" width="80" height="50" rx="2" fill="url(#panelReflect)"/>
      <line x1="27" y1="0" x2="27" y2="50" stroke="#4a5568" stroke-width="0.3"/>
      <line x1="54" y1="0" x2="54" y2="50" stroke="#4a5568" stroke-width="0.3"/>
      <line x1="0" y1="17" x2="80" y2="17" stroke="#4a5568" stroke-width="0.3"/>
      <line x1="0" y1="34" x2="80" y2="34" stroke="#4a5568" stroke-width="0.3"/>
    </g>
  </g>

  <!-- ═══ DECORATIVE LEAF ELEMENTS (floating) ═══ -->
  <!-- Floating leaf 1 -->
  <g transform="translate(1700, 450) rotate(25)" opacity="0.3">
    <path d="M0,0 Q15,-30 0,-50 Q-15,-30 0,0 Z" fill="url(#leafGrad1)"/>
    <line x1="0" y1="0" x2="0" y2="-45" stroke="#16A34A" stroke-width="0.8" opacity="0.5"/>
  </g>
  <!-- Floating leaf 2 -->
  <g transform="translate(1750, 520) rotate(-15)" opacity="0.25">
    <path d="M0,0 Q12,-25 0,-40 Q-12,-25 0,0 Z" fill="url(#leafGrad1)"/>
    <line x1="0" y1="0" x2="0" y2="-36" stroke="#16A34A" stroke-width="0.6" opacity="0.5"/>
  </g>
  <!-- Floating leaf 3 -->
  <g transform="translate(1620, 500) rotate(40)" opacity="0.2">
    <path d="M0,0 Q10,-20 0,-35 Q-10,-20 0,0 Z" fill="url(#leafGrad2)"/>
  </g>

  <!-- ═══ ENERGY FLOW LINES (connecting sun to panels) ═══ -->
  <g stroke="#F4C430" stroke-width="1.5" fill="none" opacity="0.1">
    <path d="M1380 415 Q1400 500 1420 545" stroke-dasharray="5,8"/>
    <path d="M1380 415 Q1500 480 1540 550" stroke-dasharray="5,8"/>
  </g>

  <!-- ═══ OVERLAYS FOR TEXT READABILITY ═══ -->
  <!-- Dark overlay on left for text -->
  <rect width="1920" height="1080" fill="url(#darkOverlay)"/>

  <!-- Bottom gradient fade -->
  <rect width="1920" y="850" height="230" fill="url(#bottomFade)"/>

  <!-- Subtle vignette -->
  <rect width="1920" height="1080" fill="none" stroke="#0F172A" stroke-width="200" stroke-opacity="0.15" rx="400"/>
</svg>